<svg width="1179" height="338" viewBox="0 0 1179 338" fill="none" xmlns="http://www.w3.org/2000/svg">
<g clip-path="url(#clip0_693_4358)">
<path d="M-78.6774 393.338C-79.6877 393.499 -80.7234 393.344 -81.6432 392.894C-87.2231 390.107 -84.7797 379.324 -79.1894 357.139C-76.5995 346.869 -73.8949 336.242 -72.786 327.545C-71.2894 316.047 -73.2153 313.093 -74.4929 312.354C-75.6554 311.682 -78.828 311.496 -87.0596 317.787C-93.3929 322.628 -100.641 329.694 -107.646 336.524C-123.41 351.903 -132.617 360.421 -138.383 356.771C-142.506 354.157 -142.291 346.874 -137.661 332.419C-133.124 318.244 -124.127 296.9 -110.916 268.997C-116.975 247.236 -114.377 225.189 -103.737 208.371C-96.6089 197.071 -86.6282 189.681 -76.3493 188.064L-76.0178 188.016C-59.9772 185.692 -41.1079 197.189 -28.4706 216.867C-16.8678 213.851 -4.58642 214.85 6.38682 219.703C17.2156 224.562 25.4296 232.894 28.9263 242.555C32.7552 253.131 31.1304 266.233 24.5673 277.568C20.7637 284.081 15.6124 289.701 9.46024 294.048C3.30801 298.395 -3.70243 301.369 -11.0993 302.77C-31.8603 336.386 -48.1504 360.845 -59.5262 375.493C-64.7817 382.259 -68.9629 386.944 -72.3354 389.82C-74.0488 391.282 -76.3463 393 -78.6774 393.338ZM-77.298 306.739C-75.4162 306.4 -73.4749 306.722 -71.8011 307.651C-63.144 312.647 -67.0352 331.014 -73.9539 358.467C-75.8284 365.901 -77.6038 372.909 -78.5897 378.511C-79.7235 384.891 -79.388 387.169 -79.1541 387.903C-77.9754 387.538 -73.6272 385.155 -61.9588 369.768C-50.7008 354.92 -34.921 331.075 -15.0573 298.885L-14.4199 297.847L-13.2238 297.64C0.848041 295.207 12.9574 286.885 19.9 274.838C25.6689 264.876 27.1379 253.494 23.8452 244.399C17.9572 228.111 -4.65629 215.471 -28.932 222.605L-30.917 223.187L-31.9952 221.412C-37.5483 212.3 -44.9069 204.512 -52.7145 199.482C-60.5222 194.453 -68.2964 192.373 -75.2354 193.379L-75.5125 193.419C-84.2505 194.796 -92.8792 201.294 -99.1769 211.244C-109.154 227.009 -111.437 247.858 -105.452 268.45L-105.164 269.444L-105.585 270.367C-118.529 297.703 -127.431 318.705 -132.085 332.802C-137.43 348.986 -135.742 351.869 -135.503 352.174C-135.23 352.224 -133.332 352.305 -127.209 347.311C-122.621 343.563 -117.181 338.261 -111.415 332.64C-98.5094 320.052 -86.1823 308.026 -77.298 306.739ZM-88.9543 230.109L-97.6814 223.137L-97.087 221.343C-96.569 219.787 -91.6083 206.007 -76.7208 201.775C-62.2438 197.657 -50.9223 206.263 -49.6798 207.257L-48.049 208.556L-52.8867 219.547L-55.5066 218.007C-60.6131 215.023 -66.6563 214.093 -72.4163 215.403C-82.0708 217.693 -86.6386 225.645 -87.4595 227.216L-88.9543 230.109ZM-91.2833 221.348L-90.5558 221.927C-86.8539 216.346 -81.2859 212.275 -74.8543 210.447C-68.4227 208.62 -61.5498 209.156 -55.473 211.958L-54.7563 210.318C-58.1068 208.177 -65.8883 204.324 -75.2771 206.992C-85.0329 209.768 -89.6642 217.819 -91.2833 221.348Z" fill="white"/>
</g>
<g clip-path="url(#clip1_693_4358)">
<path d="M1027.97 404.851C1026.78 405.405 1025.45 405.578 1024.16 405.347C1016.31 403.876 1015.52 389.728 1014.61 360.423C1014.18 346.856 1013.78 332.81 1012.08 321.702C1009.88 307.008 1006.47 304.045 1004.64 303.584C1002.97 303.165 998.993 304.052 991.063 314.699C984.961 322.893 978.516 334.15 972.287 345.031C958.272 369.528 949.923 383.264 941.534 380.795C935.533 379.025 933.236 369.975 933.856 350.533C934.46 331.469 938.037 302.002 944.5 262.97C929.377 238.286 924.822 210.204 932.016 185.736C936.825 169.303 946.524 156.685 958.622 151.076L959.013 150.901C977.962 142.394 1005.26 149.922 1027.76 169.725C1040.99 161.926 1056.48 158.837 1071.71 160.956C1086.76 163.134 1099.81 170.512 1107.52 181.186C1115.96 192.871 1118.57 209.588 1114.47 225.866C1112.07 235.23 1107.7 243.967 1101.65 251.488C1095.6 259.01 1088.01 265.141 1079.38 269.47C1065.63 318.198 1054.16 354.07 1045.29 376.123C1041.2 386.31 1037.69 393.554 1034.55 398.284C1032.95 400.688 1030.73 403.614 1027.97 404.851ZM999.205 297.651C1001.4 296.571 1003.91 296.285 1006.3 296.841C1018.73 299.951 1020.39 323.953 1021.52 360.218C1021.83 370.038 1022.11 379.298 1022.86 386.548C1023.71 394.81 1024.93 397.499 1025.47 398.321C1026.8 397.456 1031.32 392.99 1040.28 369.924C1048.93 347.666 1059.99 312.73 1073.14 266.076L1073.56 264.572L1074.96 263.896C1091.45 255.946 1103.44 241.432 1107.76 224.144C1111.36 209.838 1109.17 195.295 1101.91 185.246C1088.92 167.246 1056.61 159.626 1029.21 176.958L1026.96 178.374L1025.01 176.566C1014.96 167.291 1003.15 160.282 991.764 156.832C980.373 153.381 970.061 153.554 961.864 157.234L961.537 157.381C951.254 162.152 942.907 173.195 938.647 187.672C931.899 210.608 936.421 237.104 951.04 260.374L951.745 261.497L951.551 262.783C945.217 301.022 941.636 330.034 940.861 349.043C939.969 370.867 943.064 373.826 943.465 374.118C943.819 374.082 946.186 373.515 951.974 365.207C956.31 358.974 961.149 350.527 966.275 341.572C977.75 321.519 988.71 302.363 999.205 297.651ZM957.881 207.323L944.674 201.802L944.775 199.381C944.866 197.282 946.131 178.556 962.988 168.102C979.379 157.935 996.358 164.556 998.238 165.344L1000.71 166.372L998.611 181.618L994.84 180.641C987.498 178.762 979.724 179.741 973.087 183.383C961.995 189.6 959.164 201.006 958.705 203.231L957.881 207.323ZM951.929 197.345L953.029 197.803C955.627 189.623 961.056 182.648 968.339 178.133C975.621 173.618 984.279 171.86 992.754 173.176L993.06 170.903C988.178 169.443 977.233 167.432 966.602 174.023C955.557 180.877 952.682 192.427 951.929 197.345Z" fill="white"/>
</g>
<g clip-path="url(#clip2_693_4358)">
<path d="M517.98 261.748C517.519 262.591 516.808 263.27 515.945 263.693C510.668 266.229 504.075 258.213 490.834 241.304C484.705 233.475 478.379 225.356 472.565 219.531C464.898 211.807 461.598 211.536 460.316 212.058C459.148 212.534 457.185 214.781 457.116 224.505C457.064 231.988 458.136 241.429 459.173 250.554C461.512 271.094 462.534 282.824 456.51 285.001C452.199 286.556 446.921 282.207 438.861 270.457C430.957 258.937 420.3 239.986 407.202 214.135C387.574 206.111 372.715 191.502 366.36 173.935C362.079 162.147 362.339 150.492 367.052 141.937L367.207 141.664C374.711 128.429 394.093 121.045 415.96 122.991C420.397 112.65 428.203 104.114 438.115 98.7662C447.949 93.5288 458.854 92.2289 468.032 95.1926C478.079 98.436 486.864 107.178 491.496 118.567C494.14 125.135 495.345 132.189 495.03 139.253C494.716 146.317 492.889 153.228 489.673 159.521C502.666 194.259 511.438 220.412 515.76 237.277C517.756 245.068 518.826 250.864 519.019 255.02C519.117 257.132 519.071 259.825 517.98 261.748ZM454.537 210.909C455.368 209.318 456.724 208.063 458.375 207.356C467.061 203.808 478.446 217.26 494.831 238.185C499.267 243.852 503.444 249.2 507.032 253.154C511.113 257.665 512.995 258.727 513.674 258.975C514.081 257.891 514.815 253.295 510.114 235.788C505.576 218.896 496.966 193.474 484.515 160.223L484.111 159.152L484.646 158.146C490.936 146.308 491.729 132.539 486.787 120.459C482.715 110.449 475.117 102.812 466.477 100.022C451.008 95.0202 428.623 104.523 419.951 126.634L419.241 128.442L417.304 128.22C407.35 127.097 397.34 128.076 389.118 130.974C380.896 133.872 374.881 138.443 371.635 144.168L371.506 144.397C367.501 151.671 367.357 161.809 371.115 172.205C377.07 188.674 391.222 202.361 409.939 209.768L410.842 210.125L411.285 210.969C424.116 236.296 434.573 254.98 442.353 266.542C451.284 279.816 454.393 280.222 454.757 280.221C454.951 280.047 456.103 278.685 455.92 271.271C455.78 265.711 454.977 258.626 454.123 251.116C452.21 234.301 450.381 218.24 454.537 210.909ZM390.989 175.474L380.797 177.937L379.808 176.464C378.952 175.185 371.584 163.578 377.009 150.1C382.282 136.993 395.178 133.545 396.631 133.195L398.533 132.733L403.903 142.644L401.253 143.701C396.102 145.773 391.936 149.721 389.594 154.747C385.739 163.225 389.01 171.188 389.703 172.701L390.989 175.474ZM383.151 172.162L383.999 171.955C381.988 165.998 382.171 159.527 384.516 153.704C386.86 147.882 391.211 143.092 396.785 140.197L395.981 138.722C392.466 139.976 385.131 143.531 381.709 152.03C378.157 160.864 381.464 168.93 383.151 172.162Z" fill="white"/>
</g>
<g clip-path="url(#clip3_693_4358)">
<path d="M816.088 439.674C813.482 437.237 811.632 433.911 810.889 432.466L810.588 431.868L794.536 159.888L794.668 159.39C796.215 153.414 801.338 149.17 807.124 149.076C808.817 149.075 810.492 149.409 812.054 150.059C813.616 150.709 815.033 151.662 816.224 152.863C817.56 154.185 818.615 155.762 819.328 157.502C820.041 159.241 820.396 161.107 820.373 162.988L820.371 163.103C820.37 163.161 820.347 163.754 820.308 164.803L848.721 163.822C849.547 163.793 850.369 163.927 851.142 164.216C851.915 164.506 852.623 164.945 853.226 165.508C853.828 166.072 854.314 166.749 854.654 167.501C854.994 168.253 855.183 169.065 855.209 169.89L855.651 183.009C855.686 184.185 855.389 185.348 854.794 186.364C855.271 187.186 855.537 188.114 855.568 189.064L855.998 202.489C856.019 202.937 855.992 203.385 855.918 203.827C856.157 204.031 856.376 204.258 856.572 204.503C856.921 204.941 857.179 205.444 857.332 205.982C857.485 206.521 857.529 207.085 857.463 207.641L857.956 222.907C858.081 223.571 858.059 224.254 857.893 224.91C857.726 225.565 857.42 226.177 856.993 226.702C856.567 227.227 856.032 227.654 855.425 227.952C854.817 228.25 854.153 228.412 853.477 228.427L824.459 229.429C825.95 237.367 827.944 244.83 830.603 251.006C843.671 281.293 833.515 412.223 832.856 420.501C833.538 432.35 829.325 441.789 823.028 442.524C820.377 442.806 818.013 441.475 816.088 439.674ZM816.926 430.127C818.757 433.493 821.372 436.244 822.295 436.14C823.477 436.002 827.071 430.915 826.437 420.666L826.424 420.436L826.443 420.208C826.556 418.837 837.292 282.703 824.709 253.537C813.219 226.954 813.51 179.839 813.845 166.421L813.758 165.026L813.885 165.052C813.92 163.952 813.948 163.228 813.959 162.934C813.967 161.916 813.772 160.907 813.385 159.967C812.997 159.027 812.426 158.174 811.703 157.458C811.121 156.854 810.425 156.372 809.654 156.039C808.883 155.707 808.054 155.531 807.214 155.522C804.492 155.568 801.945 157.665 801.004 160.579L816.926 430.127ZM823.108 210.177L823.941 223.046L851.515 222.094L851.099 209.217L849.771 209.247L849.726 209.246L823.108 210.177ZM820.955 190.919L821.791 203.785L849.519 202.831C849.544 202.829 849.567 202.817 849.584 202.799C849.602 202.78 849.612 202.756 849.612 202.731L849.184 189.942L820.955 190.919ZM820.576 171.216L821.409 184.085L849.218 183.125L848.817 170.238L820.576 171.216Z" fill="white"/>
</g>
<path d="M161.699 228.19C159.204 228.185 156.734 227.691 154.429 226.736L153.896 226.513L153.459 226.14L67.5986 152.687C61.2184 157.433 53.3305 159.697 45.4048 159.057C37.4791 158.418 30.0562 154.918 24.5195 149.211C18.9828 143.504 15.7099 135.978 15.3109 128.037C14.9118 120.096 17.4137 112.28 22.3504 106.046C27.2871 99.813 34.3217 95.5871 42.1434 94.1563C49.9651 92.7254 58.0402 94.1872 64.864 98.2692C71.6877 102.351 76.7946 108.775 79.2328 116.343C81.671 123.912 81.2744 132.109 78.1167 139.406L170.967 198.715L171.219 198.957C173.084 200.715 174.577 202.829 175.611 205.175C176.644 207.52 177.196 210.049 177.234 212.611C177.263 217.032 175.62 221.186 172.736 223.997C169.852 226.808 165.902 228.19 161.699 228.19ZM157.72 220.212C161.423 221.559 165.354 221.016 167.642 218.787C169.12 217.332 169.959 215.112 169.944 212.65C169.888 209.562 168.623 206.619 166.42 204.454L74.5105 145.727C74.0258 146.401 73.5023 147.055 72.9546 147.695L157.72 220.212ZM48.094 100.969C43.9728 100.969 39.9134 101.97 36.2647 103.886C32.616 105.802 29.4873 108.576 27.1475 111.969C24.8077 115.361 23.3269 119.271 22.8324 123.362C22.3379 127.454 22.8444 131.604 24.3085 135.456C25.7726 139.309 28.1504 142.748 31.2375 145.478C34.3246 148.208 38.0286 150.148 42.031 151.13C46.0334 152.112 50.2145 152.107 54.2147 151.116C58.2149 150.125 61.9146 148.178 64.9957 145.441L70.3614 138.723C72.5048 134.849 73.6003 130.484 73.5395 126.057C73.4788 121.631 72.2638 117.297 70.0148 113.484C67.7659 109.67 64.5607 106.51 60.7162 104.316C56.8717 102.121 52.5209 100.967 48.094 100.969ZM193.263 186.263C190.768 186.26 188.297 185.766 185.993 184.809L185.46 184.591L185.023 184.212L94.1556 106.495L97.5243 102.278L82.6778 73.8352L51.5548 75.9L51.0701 68.6294L86.9383 66.2495L102.493 96.0541L104.17 93.9602L202.473 156.793L202.725 157.035C204.596 158.789 206.095 160.901 207.134 163.246C208.174 165.591 208.731 168.12 208.774 170.684C208.803 175.11 207.16 179.259 204.276 182.07C201.431 184.818 197.442 186.263 193.263 186.263ZM189.284 178.284C192.987 179.637 196.918 179.089 199.206 176.864C200.684 175.41 201.523 173.185 201.508 170.728C201.452 167.638 200.187 164.694 197.985 162.527L105.755 103.62L104.223 105.559L189.284 178.284Z" fill="white"/>
<path d="M550.278 410.238C549.629 407.8 549.423 405.27 549.672 402.791L549.731 402.217L549.95 401.701L592.985 300.301C587.083 295.204 583.001 288.042 581.497 280.149C579.993 272.256 581.172 264.171 584.812 257.401C588.453 250.63 594.307 245.636 601.285 243.348C608.262 241.061 615.887 241.637 622.737 244.968C629.588 248.3 635.197 254.16 638.52 261.456C641.843 268.753 642.652 276.988 640.797 284.627C638.943 292.267 634.551 298.789 628.439 302.978C622.328 307.168 614.915 308.739 607.581 307.399L578.987 412.246L578.837 412.55C577.758 414.791 576.263 416.755 574.442 418.324C572.621 419.894 570.51 421.037 568.235 421.687C564.3 422.771 560.166 422.159 556.904 420.015C553.643 417.87 551.377 414.342 550.278 410.238ZM556.351 404.446C556.118 408.384 557.631 412.093 560.218 413.795C561.902 414.891 564.101 415.179 566.293 414.577C569.032 413.784 571.325 411.845 572.68 409.177L601.001 305.388C600.273 305.075 599.552 304.721 598.838 304.339L556.351 404.446ZM634.002 268.895C632.923 264.871 630.968 261.146 628.305 258.04C625.641 254.935 622.349 252.542 618.711 251.068C615.074 249.594 611.2 249.082 607.422 249.577C603.644 250.071 600.075 251.558 597.023 253.908C593.971 256.258 591.526 259.402 589.899 263.069C588.272 266.736 587.512 270.817 587.683 274.96C587.855 279.104 588.953 283.186 590.883 286.855C592.814 290.525 595.519 293.673 598.766 296.028L606.161 299.662C610.176 300.83 614.356 300.857 618.287 299.74C622.219 298.623 625.766 296.4 628.578 293.293C631.389 290.186 633.369 286.3 634.32 282.022C635.271 277.743 635.162 273.218 634.002 268.895ZM595.926 431.044C595.276 428.607 595.07 426.076 595.32 423.597L595.375 423.024L595.598 422.507L641.127 315.198L645.769 317.48L667.248 296.185L657.263 266.285L663.62 264.074L675.128 298.534L652.619 320.845L654.925 321.982L624.616 432.996L624.466 433.3C623.392 435.546 621.9 437.515 620.081 439.09C618.262 440.665 616.153 441.814 613.877 442.469C609.938 443.555 605.808 442.942 602.547 440.797C599.351 438.675 597.019 435.125 595.926 431.044ZM602 425.252C601.763 429.191 603.28 432.899 605.862 434.602C607.546 435.698 609.749 435.985 611.937 435.384C614.677 434.591 616.972 432.652 618.329 429.983L646.725 325.839L644.596 324.806L602 425.252Z" fill="white"/>
<g clip-path="url(#clip4_693_4358)">
<path d="M535.146 156.06L550.417 155.408C550.453 155.405 555.693 155.094 563.133 151.34C570.028 147.861 580.28 140.628 589.966 125.932C599.233 111.874 616.761 101.99 633.71 92.4292C653.117 81.4863 671.476 71.1342 675.003 56.1451C670.944 49.8014 663.779 36.1978 669.134 26.008C670.091 24.1683 673.036 18.5879 678.11 18.8804C680.862 19.0446 683.346 20.948 684.977 24.0064L728.231 10.9254C729.672 8.69091 733.06 4.22784 737.225 4.0476C738.825 3.97971 741.146 4.49615 743.105 7.35852C746.397 12.1676 751.281 24.9868 746.171 39.0963C739.861 56.5441 720.94 69.8976 689.932 78.792C687.324 80.6295 671.738 91.886 660.159 106.183C653.113 114.878 641.051 120.187 629.385 125.321C618.514 130.109 607.275 135.059 600.743 142.523C599.839 143.559 598.96 144.571 598.109 145.561C585.639 159.985 576.629 170.406 549.585 161.048L535.146 156.06ZM678.138 24.8363C678.015 24.7665 677.88 24.7226 677.739 24.7073C677.518 24.697 676.304 24.8348 674.261 28.722C669.932 36.9553 677.958 50.1108 680.505 53.9385L681.156 54.9151L680.945 56.0763C677.587 74.3516 657.656 85.5898 636.551 97.4932C620.203 106.711 603.302 116.245 594.818 129.132C583.156 146.824 570.594 154.761 561.87 158.328C577.211 160.879 583.569 153.531 593.73 141.777C594.588 140.781 595.474 139.757 596.386 138.715C603.769 130.275 615.612 125.061 627.064 120.021C638.601 114.941 649.5 110.142 655.649 102.558C668.812 86.3061 686.3 74.2689 687.037 73.7653L687.429 73.4974L687.884 73.3673C703.992 68.7862 716.786 62.9322 725.91 55.9645C733.246 50.3649 738.224 44.0196 740.711 37.1571C745.166 24.8433 740.483 13.8846 738.306 10.695C737.978 10.2188 737.623 9.9033 737.454 9.9025C736.51 9.94036 734.499 11.922 733.056 14.1685C735.846 18.1575 739.448 25.203 738.289 33.8702C737.016 43.4003 730.659 51.0072 719.402 56.477C715.67 58.289 704.319 63.806 693.643 58.5034L693.3 58.325C683.351 53.1511 677.902 40.3616 679.888 26.8863C679.515 26.0478 678.907 25.3358 678.138 24.8363ZM685.363 29.978C684.578 40.2727 688.818 49.5942 696.228 53.2728C704.359 57.3088 713.458 52.8879 716.881 51.2254C726.277 46.6669 731.542 40.5581 732.55 33.0704C733.494 25.9907 730.3 20.1884 728.024 17.0649L685.363 29.978Z" fill="white"/>
</g>
<g clip-path="url(#clip5_693_4358)">
<path d="M423.399 314.443L407.767 303.272C407.729 303.246 402.298 299.501 392.023 297.463C382.501 295.573 366.75 294.806 345.784 301.869C325.727 308.623 300.717 304.853 276.53 301.209C248.839 297.032 222.643 293.082 207.551 305.2C206.663 314.624 203.235 333.644 190.046 339.594C187.675 340.676 180.439 343.925 175.64 339.709C173.041 337.417 172.053 333.61 172.804 329.318L119.837 308.808C116.68 309.907 109.87 311.706 105.605 308.662C103.968 307.491 102.069 305.184 102.343 300.833C102.803 293.522 107.884 277.044 123.863 267.022C143.613 254.62 172.688 256.033 210.286 271.215C214.291 271.413 238.44 272.322 260.973 267.12C274.679 263.958 290.735 268.033 306.264 271.973C320.738 275.642 335.701 279.435 347.946 277.095C349.643 276.77 351.297 276.446 352.906 276.124C376.419 271.485 393.407 268.134 412.955 298.329L423.399 314.443ZM180.22 333.788C180.288 333.952 180.389 334.101 180.516 334.224C180.727 334.406 182.036 335.208 187.068 332.939C197.727 328.133 199.955 308.891 200.394 303.129L200.504 301.657L201.612 300.671C219.079 285.166 247.518 289.455 277.634 293.994C300.96 297.513 325.078 301.146 343.454 294.944C368.696 286.443 387.279 288.301 398.681 291.518C385.46 277.12 373.475 279.48 354.316 283.261C352.696 283.583 351.025 283.913 349.316 284.239C335.471 286.887 319.707 282.888 304.462 279.02C289.104 275.124 274.594 271.445 262.635 274.2C237.021 280.114 210.385 278.507 209.265 278.435L208.669 278.397L208.117 278.173C188.617 270.248 171.414 266.147 156.984 265.989C145.385 265.86 135.545 268.294 127.771 273.167C113.83 281.918 109.99 296.397 109.678 301.241C109.635 301.966 109.742 302.553 109.909 302.685C110.873 303.378 114.399 302.971 117.566 301.862C117.889 295.752 119.772 285.986 127.627 278.298C136.262 269.842 148.445 267.226 163.828 270.517C168.926 271.61 184.439 274.928 190.911 288.441L191.113 288.883C196.966 301.707 192.467 318.592 180.073 330.403C179.794 331.522 179.845 332.698 180.22 333.788ZM177.042 323.104C185.786 313.515 188.798 301 184.304 291.622C179.372 281.333 166.939 278.672 162.262 277.67C149.427 274.915 139.485 276.893 132.693 283.53C126.279 289.812 124.954 298.031 124.792 302.887L177.042 323.104Z" fill="white"/>
</g>
<path d="M290.302 201.514L281.54 169.779L248.01 155.259L282.406 146.787L293.826 109.052L300.71 146.988L334.507 160.085L302.808 169.942L290.302 201.514ZM259.942 156.258L284.739 166.997L290.95 189.492L299.925 166.831L322.904 159.693L297.332 149.782L292.883 125.332L285.425 149.981L259.942 156.258Z" fill="white"/>
<path d="M705.847 228.265L697.084 196.53L663.555 182.011L697.951 173.538L709.371 135.804L716.255 173.74L750.052 186.837L718.353 196.694L705.847 228.265ZM675.487 183.01L700.284 193.749L706.495 216.244L715.47 193.583L738.449 186.444L712.877 176.534L708.428 152.083L700.97 176.733L675.487 183.01Z" fill="white"/>
<path d="M945.722 135.526L936.959 103.791L903.43 89.2709L937.826 80.7986L949.246 43.0646L956.13 81L989.927 94.0973L958.228 103.954L945.722 135.526ZM915.362 90.2703L940.159 101.009L946.37 123.504L955.345 100.844L978.324 93.7046L952.752 83.7944L948.303 59.3437L940.845 83.9932L915.362 90.2703Z" fill="white"/>
<defs>
<clipPath id="clip0_693_4358">
<rect width="184.69" height="202.819" fill="white" transform="translate(-163.077 200.629) rotate(-8.24319)"/>
</clipPath>
<clipPath id="clip1_693_4358">
<rect width="236.684" height="259.917" fill="white" transform="translate(856.168 197.072) rotate(-24.1774)"/>
</clipPath>
<clipPath id="clip2_693_4358">
<rect width="173.367" height="190.385" fill="white" transform="translate(326.481 213.498) rotate(-60.4494)"/>
</clipPath>
<clipPath id="clip3_693_4358">
<rect width="217.582" height="225.607" fill="white" transform="translate(817.667 132.237) rotate(43.0865)"/>
</clipPath>
<clipPath id="clip4_693_4358">
<rect width="133.607" height="228.874" fill="white" transform="translate(640.739 -47) rotate(27.4749)"/>
</clipPath>
<clipPath id="clip5_693_4358">
<rect width="167.937" height="287.683" fill="white" transform="translate(161.683 433.885) rotate(-114.531)"/>
</clipPath>
</defs>
</svg>
